# xmcd CD database file
#
# Track frame offsets:
#	150
#	12464
#	28642
#	44007
#	60945
#
# Disc length: 1047 seconds
#
# Revision: 0
# Processed by: cddbd v1.5.2PL0 Copyright (c) Steve Scherf et al.
# Submitted via: CDex 1.51
#
DISCID=39041505
DTITLE=SaraBeth - Kickin' and Screamin' (EP)
DYEAR=2012
DGENRE=Country
TTITLE0=Kickin' and Screamin'
TTITLE1=Miss You Anywhere
TTITLE2=Slow
TTITLE3=Forever
TTITLE4=Those Memories
EXTD=YEAR: 2012
EXTT0=
EXTT1=
EXTT2=
EXTT3=
EXTT4=
PLAYORDER=
